<?xml version="1.0" encoding="UTF-8" standalone="no"?>
<!-- Created with Inkscape (http://www.inkscape.org/) -->

<svg
   xmlns:dc="http://purl.org/dc/elements/1.1/"
   xmlns:cc="http://creativecommons.org/ns#"
   xmlns:rdf="http://www.w3.org/1999/02/22-rdf-syntax-ns#"
   xmlns:svg="http://www.w3.org/2000/svg"
   xmlns="http://www.w3.org/2000/svg"
   xmlns:sodipodi="http://sodipodi.sourceforge.net/DTD/sodipodi-0.dtd"
   xmlns:inkscape="http://www.inkscape.org/namespaces/inkscape"
   width="130.77975mm"
   height="130.77975mm"
   viewBox="0 0 130.77975 130.77975"
   version="1.1"
   id="svg832"
   sodipodi:docname="deep_robotics.svg"
   inkscape:version="0.92.4 (unknown)"
   inkscape:export-filename="/home/ricks/Downloads/deep_robotics.png"
   inkscape:export-xdpi="90"
   inkscape:export-ydpi="90">
  <defs
     id="defs826" />
  <sodipodi:namedview
     id="base"
     pagecolor="#ffffff"
     bordercolor="#666666"
     borderopacity="1.0"
     inkscape:pageopacity="0.0"
     inkscape:pageshadow="2"
     inkscape:zoom="0.98994949"
     inkscape:cx="356.28041"
     inkscape:cy="182.72977"
     inkscape:document-units="mm"
     inkscape:current-layer="layer1"
     showgrid="true"
     inkscape:lockguides="true"
     showguides="true"
     inkscape:guide-bbox="true"
     guidetolerance="20"
     gridtolerance="10"
     inkscape:window-width="1920"
     inkscape:window-height="1004"
     inkscape:window-x="0"
     inkscape:window-y="0"
     inkscape:window-maximized="1"
     fit-margin-top="0"
     fit-margin-left="0"
     fit-margin-right="0"
     fit-margin-bottom="0">
    <sodipodi:guide
       position="31.537804,296.93645"
       orientation="0,1"
       id="guide953"
       inkscape:locked="true" />
    <sodipodi:guide
       position="-0.26727133,296.82203"
       orientation="1,0"
       id="guide955"
       inkscape:locked="true" />
    <inkscape:grid
       type="xygrid"
       id="grid957"
       originx="0"
       originy="-166.15669" />
    <sodipodi:guide
       position="130.77975,296.93646"
       orientation="1,0"
       id="guide5209"
       inkscape:locked="true" />
    <sodipodi:guide
       position="0,166.1567"
       orientation="0,1"
       id="guide5211"
       inkscape:locked="true" />
  </sodipodi:namedview>
  <metadata
     id="metadata829">
    <rdf:RDF>
      <cc:Work
         rdf:about="">
        <dc:format>image/svg+xml</dc:format>
        <dc:type
           rdf:resource="http://purl.org/dc/dcmitype/StillImage" />
        <dc:title />
      </cc:Work>
    </rdf:RDF>
  </metadata>
  <g
     inkscape:groupmode="layer"
     id="layer2"
     inkscape:label="bg"
     style="display:inline" />
  <g
     inkscape:groupmode="layer"
     id="layer3"
     inkscape:label="button"
     style="display:inline">
    <rect
       style="fill:#094971;fill-opacity:1;stroke-width:0.26458332"
       id="rect834"
       width="130.77975"
       height="130.77975"
       x="0"
       y="0.063550778"
       rx="17"
       transform="translate(0,-0.06355078)" />
  </g>
  <g
     inkscape:label="Circle"
     inkscape:groupmode="layer"
     id="layer1"
     transform="translate(0,-0.06355078)"
     style="display:inline">
    <g
       id="g7052"
       transform="matrix(1.8618827,0,0,1.8618827,5.3308646,7.1342554)">
      <g
         id="g7010">
        <path
           id="path7008"
           d="m 24,59 c -1.887,0 -3.648,-1.104 -4.488,-2.812 L 18.285,53.69 15.516,53.972 C 15.339,53.991 15.168,54 15,54 11.691,54 9,51.309 9,48 9,46.873 9.324,45.768 9.938,44.803 L 11.992,41.574 8.857,39.38 C 6.441,37.688 5,34.93 5,32 5,28.764 6.764,25.76 9.602,24.161 l 2.943,-1.658 -1.142,-3.18 C 11.136,18.579 11,17.797 11,17 c 0,-3.316 2.354,-6.201 5.598,-6.86 l 1.976,-0.401 0.9,-1.837 C 20.296,6.139 22.072,5 24,5 c 2.757,0 5,2.243 5,5 v 44 c 0,2.757 -2.243,5 -5,5 z"
           style="fill:#f0bc5e"
           inkscape:connector-curvature="0" />
      </g>
      <g
         id="g7014">
        <circle
           id="circle7012"
           r="5"
           cy="10"
           cx="54"
           style="fill:#f0bc5e" />
      </g>
      <g
         id="g7018">
        <circle
           id="circle7016"
           r="5"
           cy="27"
           cx="58"
           style="fill:#f0bc5e" />
      </g>
      <g
         id="g7022">
        <circle
           id="circle7020"
           r="5"
           cy="37"
           cx="58"
           style="fill:#f0bc5e" />
      </g>
      <g
         id="g7026">
        <circle
           id="circle7024"
           r="5"
           cy="54"
           cx="54"
           style="fill:#f0bc5e" />
      </g>
      <g
         id="g7050">
        <path
           id="path7028"
           d="M 33,38 H 47 V 36 H 33 v -8 h 2 V 26 H 33 V 22 H 43 V 20 H 33 V 10 C 33,5.038 28.962,1 24,1 20.393,1 17.283,3.138 15.848,6.21 L 15.801,6.22 C 10.701,7.255 7,11.789 7,17 7,18.26 7.214,19.493 7.638,20.676 3.577,22.964 1,27.311 1,32 1,36.253 3.108,40.238 6.562,42.656 5.578,44.204 5,46.034 5,48 c 0,5.514 4.486,10 10,10 0.301,0 0.607,-0.016 0.923,-0.047 C 17.42,61.001 20.571,63 24,63 c 4.962,0 9,-4.038 9,-9 V 44 h 5 v -2 h -5 z m -2,16 c 0,3.86 -3.14,7 -7,7 -2.875,0 -5.499,-1.808 -6.531,-4.499 l -0.294,-0.768 -0.81,0.14 C 15.875,55.959 15.428,56 15,56 10.589,56 7,52.411 7,48 7,43.589 10.589,40 15,40 V 38 C 12.178,38 9.631,39.18 7.811,41.066 4.834,39.026 3,35.636 3,32 3,27.765 5.486,23.86 9.333,22.051 L 10.229,21.63 9.817,20.73 C 9.275,19.543 9,18.289 9,17 9,13.111 11.522,9.691 15.14,8.474 15.054,8.971 15,9.479 15,10 c 0,1.582 0.417,3.138 1.205,4.5 l 1.731,-1.001 C 17.324,12.441 17,11.23 17,10 c 0,-3.86 3.14,-7 7,-7 3.86,0 7,3.14 7,7 z"
           inkscape:connector-curvature="0"
           style="fill:#ffffff" />
        <path
           id="path7030"
           d="m 24,57 v 2 c 2.757,0 5,-2.243 5,-5 h -2 c 0,1.654 -1.346,3 -3,3 z"
           inkscape:connector-curvature="0"
           style="fill:#ffffff" />
        <path
           id="path7032"
           d="M 11,48 H 9 c 0,3.309 2.691,6 6,6 v -2 c -2.206,0 -4,-1.794 -4,-4 z"
           inkscape:connector-curvature="0"
           style="fill:#ffffff" />
        <path
           id="path7034"
           d="M 55,51.184 V 47 c 0,-2.757 -2.243,-5 -5,-5 H 40 v 2 h 10 c 1.654,0 3,1.346 3,3 v 4.184 c -1.161,0.414 -2,1.514 -2,2.816 0,1.654 1.346,3 3,3 1.654,0 3,-1.346 3,-3 0,-1.302 -0.839,-2.402 -2,-2.816 z M 54,55 c -0.551,0 -1,-0.449 -1,-1 0,-0.551 0.449,-1 1,-1 0.551,0 1,0.449 1,1 0,0.551 -0.449,1 -1,1 z"
           inkscape:connector-curvature="0"
           style="fill:#ffffff" />
        <path
           id="path7036"
           d="m 58,34 c -1.302,0 -2.402,0.839 -2.816,2 H 49 v 2 h 6.184 c 0.414,1.161 1.514,2 2.816,2 1.654,0 3,-1.346 3,-3 0,-1.654 -1.346,-3 -3,-3 z m 0,4 c -0.551,0 -1,-0.449 -1,-1 0,-0.551 0.449,-1 1,-1 0.551,0 1,0.449 1,1 0,0.551 -0.449,1 -1,1 z"
           inkscape:connector-curvature="0"
           style="fill:#ffffff" />
        <path
           id="path7038"
           d="M 55.184,26 H 37 v 2 h 18.184 c 0.414,1.161 1.514,2 2.816,2 1.654,0 3,-1.346 3,-3 0,-1.654 -1.346,-3 -3,-3 -1.302,0 -2.402,0.839 -2.816,2 z M 58,26 c 0.551,0 1,0.449 1,1 0,0.551 -0.449,1 -1,1 -0.551,0 -1,-0.449 -1,-1 0,-0.551 0.449,-1 1,-1 z"
           inkscape:connector-curvature="0"
           style="fill:#ffffff" />
        <path
           id="path7040"
           d="M 55,17 V 12.816 C 56.161,12.402 57,11.302 57,10 57,8.346 55.654,7 54,7 c -1.654,0 -3,1.346 -3,3 0,1.302 0.839,2.402 2,2.816 V 17 c 0,1.654 -1.346,3 -3,3 h -5 v 2 h 5 c 2.757,0 5,-2.243 5,-5 z M 54,9 c 0.551,0 1,0.449 1,1 0,0.551 -0.449,1 -1,1 -0.551,0 -1,-0.449 -1,-1 0,-0.551 0.449,-1 1,-1 z"
           inkscape:connector-curvature="0"
           style="fill:#ffffff" />
        <path
           id="path7042"
           d="m 11.879,26.879 c -1.95,1.949 -1.95,5.122 0,7.071 l 1.414,-1.414 c -1.169,-1.17 -1.169,-3.073 0,-4.243 1.17,-1.171 3.073,-1.17 4.243,0 l 1.414,-1.414 c -1.95,-1.949 -5.122,-1.95 -7.071,0 z"
           inkscape:connector-curvature="0"
           style="fill:#ffffff" />
        <path
           id="path7044"
           d="m 24,5 c -2.757,0 -5,2.243 -5,5 h 2 c 0,-1.654 1.346,-3 3,-3 1.654,0 3,1.346 3,3 h 2 C 29,7.243 26.757,5 24,5 Z"
           inkscape:connector-curvature="0"
           style="fill:#ffffff" />
        <path
           id="path7046"
           d="m 28,24 c 0,-2.757 -2.243,-5 -5,-5 v 2 c 1.654,0 3,1.346 3,3 0,1.654 -1.346,3 -3,3 v 2 c 2.757,0 5,-2.243 5,-5 z"
           inkscape:connector-curvature="0"
           style="fill:#ffffff" />
        <path
           id="path7048"
           d="m 18,45 c 0,2.757 2.243,5 5,5 v -2 c -1.654,0 -3,-1.346 -3,-3 0,-1.654 1.346,-3 3,-3 v -2 c -2.757,0 -5,2.243 -5,5 z"
           inkscape:connector-curvature="0"
           style="fill:#ffffff" />
      </g>
    </g>
  </g>
  <g
     inkscape:groupmode="layer"
     id="layer4"
     inkscape:label="panda"
     style="display:inline" />
</svg>
